<?xml version="1.0" standalone="no"?>
<!DOCTYPE svg PUBLIC "-//W3C//DTD SVG 20010904//EN"
 "http://www.w3.org/TR/2001/REC-SVG-20010904/DTD/svg10.dtd">
<svg version="1.0" xmlns="http://www.w3.org/2000/svg"
 width="700.000000pt" height="700.000000pt" viewBox="0 0 700.000000 700.000000"
 preserveAspectRatio="xMidYMid meet">

<g transform="translate(0.000000,500.000000) scale(0.100000,-0.100000)"
fill="#000000" stroke="none">
<path d="M1257 3159 c-54 -13 -77 -27 -77 -48 0 -14 10 -20 46 -25 78 -10 102
-7 154 22 27 15 50 30 50 33 0 3 -11 11 -25 17 -30 14 -93 14 -148 1z"/>
<path d="M176 3089 l-26 -21 2 -356 3 -357 80 -3 c93 -3 118 1 145 28 18 18
20 34 20 191 0 151 2 170 15 159 8 -7 15 -24 15 -37 0 -15 24 -53 63 -101 l62
-76 5 -81 5 -80 95 -2 c81 -3 99 0 120 16 l25 20 3 334 c2 208 -1 344 -7 360
-10 27 -12 27 -103 27 -125 -1 -138 -11 -138 -109 0 -38 5 -73 10 -76 12 -7
14 -65 3 -64 -5 0 -46 45 -93 100 -124 146 -128 149 -209 149 -54 0 -74 -4
-95 -21z"/>
<path d="M1886 3089 l-26 -20 0 -348 c0 -256 3 -350 12 -359 8 -8 46 -12 103
-12 83 0 94 2 113 23 21 22 22 32 22 208 1 164 2 182 15 165 8 -11 15 -37 15
-58 0 -108 127 -112 195 -6 52 81 56 85 40 44 -18 -46 -21 -325 -5 -357 9 -17
22 -19 103 -19 75 0 97 4 117 20 l25 19 3 346 c2 252 0 351 -9 361 -8 10 -38
14 -109 14 -93 0 -99 -1 -128 -28 -16 -15 -47 -65 -68 -110 -26 -54 -44 -81
-54 -79 -8 1 -39 45 -67 97 -29 52 -60 101 -70 108 -10 7 -51 12 -109 12 -77
0 -95 -3 -118 -21z"/>
<path d="M2884 3082 c-23 -21 -45 -68 -94 -197 l-63 -170 -4 -150 c-2 -82 1
-163 5 -180 l8 -30 90 -3 c79 -2 94 0 117 18 25 20 27 27 27 99 l0 78 73 -5
c39 -2 76 -8 81 -12 5 -5 9 -42 10 -82 1 -40 5 -79 10 -86 5 -8 37 -12 100
-12 80 0 97 3 121 21 l27 22 -4 181 -4 181 -58 150 c-63 164 -74 186 -90 197
-6 4 -81 8 -166 8 l-156 0 -30 -28z m196 -229 c11 -32 23 -64 25 -70 2 -7 11
-13 19 -13 7 0 16 -7 20 -15 4 -13 -8 -15 -74 -15 -60 0 -80 3 -80 13 0 11 22
83 45 145 9 25 24 10 45 -45z"/>
<path d="M3527 3093 l-27 -18 2 -360 3 -360 240 0 240 0 50 27 c115 60 125 90
125 355 -1 267 -12 301 -110 347 -41 19 -67 21 -270 24 -201 2 -228 1 -253
-15z m351 -204 c21 -8 22 -12 22 -153 0 -102 3 -145 12 -148 6 -2 8 -10 4 -16
-5 -8 -36 -12 -87 -12 l-79 0 0 175 0 174 53 -6 c28 -3 62 -10 75 -14z"/>
<path d="M4298 3089 l-28 -21 0 -347 c0 -257 3 -350 12 -359 9 -9 81 -12 264
-12 l251 0 27 25 c23 21 26 32 26 85 0 102 4 100 -175 100 l-155 0 0 46 c0 44
1 46 23 38 12 -4 56 -8 98 -9 108 0 121 13 117 114 l-3 76 -115 5 -115 5 -3
34 c-4 34 16 68 25 44 3 -10 38 -13 127 -13 117 0 124 1 150 25 23 21 26 32
26 85 0 106 17 100 -273 100 -238 -1 -253 -2 -279 -21z"/>
<path d="M1656 3003 c13 -25 24 -54 24 -63 0 -10 18 -36 40 -58 35 -35 40 -37
40 -18 0 28 -53 137 -76 157 -10 9 -27 19 -36 22 -14 5 -13 -2 8 -40z"/>
<path d="M985 2910 c-36 -24 -42 -40 -51 -133 l-6 -74 34 -21 c20 -12 38 -22
42 -22 3 0 21 30 40 68 l33 67 -20 68 c-11 37 -25 67 -31 66 -6 0 -24 -9 -41
-19z"/>
<path d="M1345 2868 c-86 -92 -83 -78 -35 -160 24 -40 44 -75 46 -77 5 -5 159
20 172 28 7 4 15 47 18 97 l6 89 -62 28 c-99 43 -100 43 -145 -5z"/>
<path d="M1689 2565 c-34 -22 -49 -38 -53 -61 -3 -17 -20 -43 -36 -59 -27 -26
-31 -45 -10 -45 14 0 108 90 130 125 12 19 20 43 18 52 -3 16 -8 15 -49 -12z"/>
<path d="M1104 2448 c-10 -34 7 -57 68 -87 68 -34 114 -39 158 -16 l29 15 -49
49 c-49 49 -49 49 -124 53 -66 3 -77 1 -82 -14z"/>
</g>
</svg>
